<svg width="552" height="24" viewBox="0 0 552 24" fill="none" xmlns="http://www.w3.org/2000/svg">
<line x1="1.08042e-07" y1="11.5293" x2="253.941" y2="11.5293" stroke="#EAEBEC" stroke-width="1.15428"/>
<path d="M281.44 11.6873C281.44 12.9268 281.216 13.998 280.769 14.9009C280.321 15.8038 279.707 16.5 278.927 16.9897C278.146 17.4794 277.255 17.7243 276.252 17.7243C275.25 17.7243 274.359 17.4794 273.578 16.9897C272.798 16.5 272.184 15.8038 271.736 14.9009C271.288 13.998 271.065 12.9268 271.065 11.6873C271.065 10.4478 271.288 9.37655 271.736 8.47368C272.184 7.57081 272.798 6.87452 273.578 6.38483C274.359 5.89514 275.25 5.65029 276.252 5.65029C277.255 5.65029 278.146 5.89514 278.927 6.38483C279.707 6.87452 280.321 7.57081 280.769 8.47368C281.216 9.37655 281.44 10.4478 281.44 11.6873ZM280.063 11.6873C280.063 10.6696 279.893 9.81077 279.552 9.11066C279.215 8.41055 278.758 7.88069 278.181 7.52107C277.607 7.16145 276.964 6.98164 276.252 6.98164C275.541 6.98164 274.896 7.16145 274.318 7.52107C273.745 7.88069 273.287 8.41055 272.947 9.11066C272.61 9.81077 272.442 10.6696 272.442 11.6873C272.442 12.7049 272.61 13.5638 272.947 14.2639C273.287 14.964 273.745 15.4939 274.318 15.8535C274.896 16.2131 275.541 16.3929 276.252 16.3929C276.964 16.3929 277.607 16.2131 278.181 15.8535C278.758 15.4939 279.215 14.964 279.552 14.2639C279.893 13.5638 280.063 12.7049 280.063 11.6873ZM283.833 17.5636V5.81097H287.804C288.722 5.81097 289.476 5.96783 290.065 6.28154C290.654 6.59142 291.09 7.01799 291.374 7.56124C291.657 8.10449 291.798 8.72235 291.798 9.41481C291.798 10.1073 291.657 10.7213 291.374 11.2569C291.09 11.7925 290.656 12.2133 290.071 12.5194C289.486 12.8216 288.738 12.9727 287.827 12.9727H284.613V11.6873H287.781C288.409 11.6873 288.914 11.5955 289.296 11.4118C289.683 11.2282 289.962 10.968 290.134 10.6314C290.31 10.2909 290.398 9.88537 290.398 9.41481C290.398 8.94424 290.31 8.53298 290.134 8.18101C289.958 7.82904 289.677 7.55742 289.29 7.36613C288.904 7.17102 288.393 7.07346 287.758 7.07346H285.256V17.5636H283.833ZM289.365 12.2841L292.257 17.5636H290.605L287.758 12.2841H289.365Z" fill="#98A2B3"/>
<line x1="316.269" y1="11.5293" x2="549.432" y2="10.3576" stroke="#EAEBEC" stroke-width="1.15428"/>
</svg>
