<svg width="62" height="61" viewBox="0 0 62 61" fill="none" xmlns="http://www.w3.org/2000/svg">
<path d="M60.1622 18.318L41.1622 6.31796C40.8378 6.10708 40.4591 5.99483 40.0722 5.99483C39.6853 5.99483 39.3066 6.10708 38.9822 6.31796L32.0922 10.938V2.00796C32.0936 1.65621 32.0022 1.31032 31.8272 1.00517C31.6523 0.700022 31.3999 0.446417 31.0956 0.269938C30.7914 0.0934585 30.4459 0.000348483 30.0942 9.76304e-07C29.7424 -0.00034653 29.3968 0.0920807 29.0922 0.267958L8.09219 12.268C7.78698 12.4442 7.53376 12.6979 7.35815 13.0035C7.18254 13.309 7.09079 13.6555 7.09219 14.008V36.268L0.982193 40.348C0.748064 40.4864 0.544625 40.6711 0.384318 40.8908C0.224011 41.1105 0.110203 41.3606 0.0498543 41.6258C-0.0104947 41.891 -0.0161171 42.1658 0.033331 42.4332C0.082779 42.7007 0.186258 42.9552 0.337442 43.1813C0.488625 43.4074 0.684336 43.6003 0.912607 43.7482C1.14088 43.896 1.39691 43.9958 1.66505 44.0414C1.9332 44.0869 2.20781 44.0773 2.47211 44.0131C2.73641 43.9489 2.98483 43.8314 3.20219 43.668L4.09219 43.078V57.008H2.31219C1.78176 57.008 1.27305 57.2187 0.89798 57.5937C0.522907 57.9688 0.312193 58.4775 0.312193 59.008C0.312193 59.5384 0.522907 60.0471 0.89798 60.4222C1.27305 60.7972 1.78176 61.008 2.31219 61.008H58.0922C58.6226 61.008 59.1313 60.7972 59.5064 60.4222C59.8815 60.0471 60.0922 59.5384 60.0922 59.008C60.0922 58.4775 59.8815 57.9688 59.5064 57.5937C59.1313 57.2187 58.6226 57.008 58.0922 57.008H57.0922V28.008C57.0922 27.4775 56.8815 26.9688 56.5064 26.5937C56.1313 26.2187 55.6226 26.008 55.0922 26.008C54.5618 26.008 54.0531 26.2187 53.678 26.5937C53.3029 26.9688 53.0922 27.4775 53.0922 28.008V57.008H37.0922V43.108L38.0222 43.698C38.4704 43.9817 39.013 44.0758 39.5306 43.9596C40.0482 43.8433 40.4984 43.5262 40.7822 43.078C41.066 42.6297 41.1601 42.0872 41.0438 41.5695C40.9275 41.0519 40.6104 40.6017 40.1622 40.318L28.0922 32.698V19.008C28.0915 18.8251 28.0646 18.6432 28.0122 18.468L40.0922 10.388L57.9922 21.698C58.4404 21.9817 58.983 22.0758 59.5006 21.9596C60.0182 21.8433 60.4684 21.5262 60.7522 21.078C61.036 20.6297 61.1301 20.0872 61.0138 19.5696C60.8975 19.052 60.5804 18.6017 60.1322 18.318H60.1622ZM33.0922 41.008V57.008H30.0922V46.008C30.0922 45.4775 29.8815 44.9688 29.5064 44.5937C29.1313 44.2187 28.6226 44.008 28.0922 44.008H12.0922C11.5618 44.008 11.0531 44.2187 10.678 44.5937C10.3029 44.9688 10.0922 45.4775 10.0922 46.008V57.008H8.09219V41.008C8.09152 40.8251 8.06458 40.6432 8.01219 40.468L20.0922 32.388L33.0922 40.608C33.0769 40.7409 33.0769 40.8751 33.0922 41.008Z" fill="white"/>
</svg>
